<svg xmlns="http://www.w3.org/2000/svg" viewBox="0 0 512 512"><!--!Font Awesome Free 6.7.2 by @fontawesome - https://fontawesome.com License - https://fontawesome.com/license/free Copyright 2024 Fonticons, Inc.--><path fill="#ffffff" d="M160 0c-23.7 0-44.4 12.9-55.4 32L48 32C21.5 32 0 53.5 0 80L0 400c0 26.5 21.5 48 48 48l144 0 0-272c0-44.2 35.8-80 80-80l48 0 0-16c0-26.5-21.5-48-48-48l-56.6 0C204.4 12.9 183.7 0 160 0zm0 40a24 24 0 1 1 0 48 24 24 0 1 1 0-48zm144 152c-22.1 0-40 17.9-40 40l0 240c0 22.1 17.9 40 40 40l224 0c22.1 0 40-17.9 40-40l0-184-88 0c-22.1 0-40-17.9-40-40l0-56-136 0zm176 0l0 48 48 0-48-48z"/></svg>
